<mxfile host="app.diagrams.net" modified="2023-03-05T20:21:35.048Z" agent="5.0 (Windows NT 10.0; Win64; x64) AppleWebKit/537.36 (KHTML, like Gecko) Chrome/110.0.0.0 Safari/537.36" etag="4P05UfM8MBiEZMjieAnS" version="16.5.5" type="github">
  <diagram id="_dL26PjZwAzP56POIHCf" name="Page-1">
    <mxGraphModel dx="460" dy="388" grid="1" gridSize="10" guides="1" tooltips="1" connect="1" arrows="1" fold="1" page="1" pageScale="1" pageWidth="827" pageHeight="1169" math="0" shadow="0">
      <root>
        <mxCell id="0" />
        <mxCell id="1" parent="0" />
        <mxCell id="AKOQAvCUDYqzumxB6_fM-2" value="Type annotations" style="rounded=0;whiteSpace=wrap;html=1;" vertex="1" parent="1">
          <mxGeometry x="50" y="170" width="210" height="60" as="geometry" />
        </mxCell>
        <mxCell id="AKOQAvCUDYqzumxB6_fM-3" value="" style="endArrow=open;endFill=1;endSize=12;html=1;rounded=0;" edge="1" parent="1">
          <mxGeometry width="160" relative="1" as="geometry">
            <mxPoint x="260" y="199.5" as="sourcePoint" />
            <mxPoint x="420" y="199.5" as="targetPoint" />
          </mxGeometry>
        </mxCell>
        <mxCell id="AKOQAvCUDYqzumxB6_fM-5" value="Code we add to tell typescript what type of calue a variable will refer to" style="rounded=0;whiteSpace=wrap;html=1;fillColor=#dae8fc;strokeColor=#6c8ebf;" vertex="1" parent="1">
          <mxGeometry x="420" y="160" width="250" height="80" as="geometry" />
        </mxCell>
        <mxCell id="AKOQAvCUDYqzumxB6_fM-7" value="" style="endArrow=open;endFill=1;endSize=12;html=1;rounded=0;startArrow=none;" edge="1" parent="1" source="AKOQAvCUDYqzumxB6_fM-6">
          <mxGeometry width="160" relative="1" as="geometry">
            <mxPoint x="240" y="349.5" as="sourcePoint" />
            <mxPoint x="400" y="349.5" as="targetPoint" />
            <Array as="points">
              <mxPoint x="350" y="349.5" />
            </Array>
          </mxGeometry>
        </mxCell>
        <mxCell id="AKOQAvCUDYqzumxB6_fM-6" value="Type interface" style="rounded=0;whiteSpace=wrap;html=1;" vertex="1" parent="1">
          <mxGeometry x="70" y="320" width="210" height="60" as="geometry" />
        </mxCell>
        <mxCell id="AKOQAvCUDYqzumxB6_fM-8" value="" style="endArrow=none;endFill=1;endSize=12;html=1;rounded=0;" edge="1" parent="1" target="AKOQAvCUDYqzumxB6_fM-6">
          <mxGeometry width="160" relative="1" as="geometry">
            <mxPoint x="290" y="350" as="sourcePoint" />
            <mxPoint x="400" y="349.5" as="targetPoint" />
            <Array as="points" />
          </mxGeometry>
        </mxCell>
        <mxCell id="AKOQAvCUDYqzumxB6_fM-9" value="Typecsript tries to figure out what type of value a variable refers to" style="rounded=0;whiteSpace=wrap;html=1;fillColor=#dae8fc;strokeColor=#6c8ebf;" vertex="1" parent="1">
          <mxGeometry x="410" y="320" width="270" height="60" as="geometry" />
        </mxCell>
      </root>
    </mxGraphModel>
  </diagram>
</mxfile>
